<svg width="266" height="63" viewBox="0 0 266 63" fill="none" xmlns="http://www.w3.org/2000/svg">
<path d="M85.4814 14.326L60.654 61.712H48.9209L56.3108 48.8121L49.5043 14.326H60.3298L63.7655 36.2364L73.9428 14.326H85.4814Z" fill="white"/>
<path d="M119.83 28.2631C119.83 40.4499 112.181 49.8493 102.327 49.8493C97.9842 49.8493 94.5486 47.8398 93.0576 44.4689L89.9461 61.712H79.2502L87.6124 14.326H97.4008L96.6877 18.6044C99.0214 15.6225 102.846 13.7426 107.124 13.7426C114.514 13.7426 119.83 19.7064 119.83 28.2631ZM108.615 29.4947C108.615 25.8646 106.282 23.3365 103.105 23.3365C98.438 23.3365 95.132 27.6148 95.132 34.0324C95.132 37.7273 97.4656 40.1906 100.642 40.1906C105.374 40.1906 108.615 35.7826 108.615 29.4947Z" fill="white"/>
<path d="M137.21 49.8493C128.394 49.8493 121.134 44.2745 121.134 34.5509C121.134 22.4938 129.302 13.6778 140.257 13.6778C151.471 13.6778 156.657 23.0124 154.842 34.4861H132.283C132.478 38.57 134.487 40.7092 138.053 40.7092C140.581 40.7092 142.201 39.5424 143.174 37.2735H154.194C151.277 46.1544 144.859 49.8493 137.21 49.8493ZM140.192 22.1048C136.497 22.1048 134.293 24.4385 133.191 27.7445H144.989C144.924 24.7626 143.368 22.1048 140.192 22.1048Z" fill="white"/>
<path d="M169.577 32.9952L166.725 49.2011H156.029L162.187 14.326H171.976L170.874 20.6139C174.245 16.4652 178.264 14.1315 185.394 14.1315L183.385 25.2812C175.411 24.0495 170.809 25.8646 169.577 32.9952Z" fill="white"/>
<path d="M230.518 5.18588C230.518 9.14012 226.888 12.4461 222.415 12.4461C218.85 12.4461 216.516 10.3069 216.516 7.32506C216.516 3.37083 220.211 0 224.554 0C228.184 0 230.518 2.13918 230.518 5.18588ZM197.977 49.2011H187.345L191.818 23.6606H185.53L187.216 14.326H193.504L193.763 13.0295C195.124 6.09341 198.884 1.87989 207.052 1.87989C209.256 1.87989 211.395 2.33365 212.756 3.04671L211.33 11.5386C210.682 11.2145 209.191 10.9552 208.089 10.9552C206.015 10.9552 204.524 11.7979 204.329 13.2888L204.2 14.326H212.497L210.876 23.6606H202.514L197.977 49.2011ZM221.378 49.2011H210.682L216.84 14.326H227.536L221.378 49.2011Z" fill="white"/>
<path d="M241.637 62.3602C232.95 62.3602 226.727 57.2392 226.338 49.0066H236.775C236.969 51.9885 239.173 53.9332 242.22 53.9332C245.591 53.9332 248.054 51.9885 248.832 47.386L249.545 43.1725C247.406 45.7654 243.97 47.2564 240.211 47.2564C232.95 47.2564 228.218 41.7464 228.218 33.4489C228.218 22.8179 236.256 13.6778 245.656 13.6778C249.675 13.6778 252.851 15.2335 254.926 18.1506L255.444 14.326H265.362L259.593 47.2564C257.843 57.2392 251.814 62.3602 241.637 62.3602ZM239.173 32.3469C239.173 35.8474 241.053 38.0514 244.035 38.0514C248.249 38.0514 251.814 33.8379 251.814 28.5872C251.814 25.2164 249.804 23.0772 246.628 23.0772C242.544 23.0772 239.173 27.1611 239.173 32.3469Z" fill="white"/>
<path d="M11.8627 49.201H0L8.23259 2.65771H20.0953L17.5894 16.7012L21.0088 20.0952H31.0088L34.249 16.7012L36.7549 2.65771H48.6176L40.3851 49.201H28.5224L31.0088 33.7012L29.5088 30.4207L18.5088 30.2012L14.598 33.7012L11.8627 49.201Z" fill="white"/>
</svg>
